<svg width="256" height="256" viewBox="0 0 256 256" fill="none" xmlns="http://www.w3.org/2000/svg">
<mask id="path-1-inside-1_110_7" fill="white">
<path d="M256 128C256 144.809 252.689 161.454 246.257 176.983C239.824 192.513 230.396 206.624 218.51 218.51C206.624 230.396 192.513 239.824 176.983 246.257C161.454 252.689 144.809 256 128 256C111.191 256 94.5462 252.689 79.0165 246.257C63.4868 239.824 49.3762 230.396 37.4903 218.51C25.6044 206.624 16.176 192.513 9.74342 176.983C3.31081 161.454 -1.46951e-06 144.809 0 128L70.4 128C70.4 135.564 71.8899 143.054 74.7845 150.043C77.6792 157.031 81.922 163.381 87.2706 168.729C92.6193 174.078 98.9691 178.321 105.957 181.215C112.946 184.11 120.436 185.6 128 185.6C135.564 185.6 143.054 184.11 150.043 181.215C157.031 178.321 163.381 174.078 168.729 168.729C174.078 163.381 178.321 157.031 181.215 150.043C184.11 143.054 185.6 135.564 185.6 128L256 128Z"/>
</mask>
<path d="M256 128C256 144.809 252.689 161.454 246.257 176.983C239.824 192.513 230.396 206.624 218.51 218.51C206.624 230.396 192.513 239.824 176.983 246.257C161.454 252.689 144.809 256 128 256C111.191 256 94.5462 252.689 79.0165 246.257C63.4868 239.824 49.3762 230.396 37.4903 218.51C25.6044 206.624 16.176 192.513 9.74342 176.983C3.31081 161.454 -1.46951e-06 144.809 0 128L70.4 128C70.4 135.564 71.8899 143.054 74.7845 150.043C77.6792 157.031 81.922 163.381 87.2706 168.729C92.6193 174.078 98.9691 178.321 105.957 181.215C112.946 184.11 120.436 185.6 128 185.6C135.564 185.6 143.054 184.11 150.043 181.215C157.031 178.321 163.381 174.078 168.729 168.729C174.078 163.381 178.321 157.031 181.215 150.043C184.11 143.054 185.6 135.564 185.6 128L256 128Z" stroke="#E0E0E0" stroke-width="20" mask="url(#path-1-inside-1_110_7)"/>
<mask id="path-2-inside-2_110_7" fill="white">
<path d="M0 128C0 111.191 3.31082 94.5462 9.74342 79.0165C16.176 63.4868 25.6044 49.3762 37.4903 37.4903C49.3762 25.6044 63.4868 16.176 79.0165 9.74342C94.5462 3.31082 111.191 -7.34753e-07 128 0C144.809 7.34754e-07 161.454 3.31082 176.983 9.74342C192.513 16.176 206.624 25.6044 218.51 37.4903C230.396 49.3762 239.824 63.4869 246.257 79.0165C252.689 94.5462 256 111.191 256 128L185.6 128C185.6 120.436 184.11 112.946 181.215 105.957C178.321 98.9691 174.078 92.6193 168.729 87.2707C163.381 81.922 157.031 77.6792 150.043 74.7845C143.054 71.8899 135.564 70.4 128 70.4C120.436 70.4 112.946 71.8899 105.957 74.7845C98.9691 77.6792 92.6193 81.922 87.2707 87.2706C81.922 92.6193 77.6792 98.9691 74.7845 105.957C71.8899 112.946 70.4 120.436 70.4 128L0 128Z"/>
</mask>
<path d="M0 128C0 111.191 3.31082 94.5462 9.74342 79.0165C16.176 63.4868 25.6044 49.3762 37.4903 37.4903C49.3762 25.6044 63.4868 16.176 79.0165 9.74342C94.5462 3.31082 111.191 -7.34753e-07 128 0C144.809 7.34754e-07 161.454 3.31082 176.983 9.74342C192.513 16.176 206.624 25.6044 218.51 37.4903C230.396 49.3762 239.824 63.4869 246.257 79.0165C252.689 94.5462 256 111.191 256 128L185.6 128C185.6 120.436 184.11 112.946 181.215 105.957C178.321 98.9691 174.078 92.6193 168.729 87.2707C163.381 81.922 157.031 77.6792 150.043 74.7845C143.054 71.8899 135.564 70.4 128 70.4C120.436 70.4 112.946 71.8899 105.957 74.7845C98.9691 77.6792 92.6193 81.922 87.2707 87.2706C81.922 92.6193 77.6792 98.9691 74.7845 105.957C71.8899 112.946 70.4 120.436 70.4 128L0 128Z" stroke="#E0E0E0" stroke-width="20" mask="url(#path-2-inside-2_110_7)"/>
<circle cx="128" cy="128" r="53" stroke="#E0E0E0" stroke-width="10"/>
</svg>
