<svg width="256" height="267" viewBox="0 0 256 267" fill="none" xmlns="http://www.w3.org/2000/svg">
<path d="M5 83.3059L1.89672 79.3855L0 80.8869V83.3059H5ZM151.409 261L150.498 265.916L152.75 266.333L154.536 264.901L151.409 261ZM177.129 19.0549L178.072 14.1446L178.072 14.1446L177.129 19.0549ZM73.2043 136.151C73.2043 138.912 75.4429 141.151 78.2043 141.151C80.9657 141.151 83.2043 138.912 83.2043 136.151H73.2043ZM248.71 32.7982L247.768 37.7085L248.71 32.7982ZM103.206 5.56874L106.31 9.48915L103.206 5.56874ZM249.584 182.291L252.712 186.192L249.584 182.291ZM6.63591 234.197L5.72569 239.113L6.63591 234.197ZM0 83.3059V232.23H10V83.3059H0ZM5.72569 239.113L150.498 265.916L152.319 256.084L7.54613 229.281L5.72569 239.113ZM156.409 261V110.412H146.409V261H156.409ZM8.10328 87.2263L106.31 9.48915L100.103 1.64833L1.89672 79.3855L8.10328 87.2263ZM245.333 34.7623V180.73H255.333V34.7623H245.333ZM246.457 178.39L148.281 257.099L154.536 264.901L252.712 186.192L246.457 178.39ZM154.489 114.35L249.457 40.0597L243.296 32.1834L148.328 106.474L154.489 114.35ZM152.319 105.495L79.1145 91.9424L77.2941 101.775L150.498 115.328L152.319 105.495ZM79.1145 91.9424L5.91023 78.3894L4.08977 88.2223L77.2941 101.775L79.1145 91.9424ZM103.882 10.0831L176.186 23.9652L178.072 14.1446L105.767 0.262464L103.882 10.0831ZM176.186 23.9652L247.768 37.7085L249.653 27.8879L178.072 14.1446L176.186 23.9652ZM81.2953 100.789L180.22 22.985L174.038 15.1248L75.1133 92.9287L81.2953 100.789ZM73.2043 96.8588V136.151H83.2043V96.8588H73.2043ZM255.333 34.7623C255.333 31.4053 252.95 28.5209 249.653 27.8879L247.768 37.7085C246.355 37.4373 245.333 36.2011 245.333 34.7623H255.333ZM106.31 9.48915C105.625 10.0308 104.739 10.2477 103.882 10.0831L105.767 0.262464C103.768 -0.121497 101.7 0.384434 100.103 1.64833L106.31 9.48915ZM245.333 180.73C245.333 179.82 245.747 178.959 246.457 178.39L252.712 186.192C254.369 184.863 255.333 182.854 255.333 180.73H245.333ZM0 232.23C0 235.605 2.40755 238.499 5.72569 239.113L7.54613 229.281C8.9682 229.544 10 230.784 10 232.23H0Z" fill="#E0E0E0"/>
</svg>
