<svg width="204" height="258" viewBox="0 0 204 258" fill="none" xmlns="http://www.w3.org/2000/svg">
<path d="M198.56 100.732C195.024 115.545 188.157 126.904 176.65 138.862L174.146 136.984C183.272 126.605 191.923 115.135 195.368 100.699C199.104 85.0481 197.177 68.8347 189.876 54.1459C182.582 39.4724 170.286 27.035 154.646 18.3266C139.008 9.61903 120.676 4.9968 101.962 4.9968C83.2476 4.9968 64.9149 9.61903 49.2768 18.3266C33.6372 27.035 21.3408 39.4724 14.0473 54.1459C6.74607 68.8347 4.8192 85.0481 8.55509 100.699C10.4742 108.739 15.0167 116.91 20.1817 124.335C24.7287 130.872 29.8877 137.013 34.4797 142.194L32.6121 144.684C19.5957 131.401 8.83208 115.263 5.36357 100.732C1.62446 85.067 3.53403 68.8203 10.8956 54.01C18.2648 39.1844 30.7989 26.4084 47.0175 17.3776C63.2376 8.34601 82.3601 3.5 101.962 3.5C121.563 3.5 140.686 8.34601 156.906 17.3776C173.124 26.4084 185.658 39.1844 193.028 54.01C200.389 68.8203 202.299 85.067 198.56 100.732Z" stroke="#E0E0E0" stroke-width="7"/>
<ellipse cx="101.372" cy="89.4625" rx="29.7388" ry="29.7388" fill="#E0E0E0"/>
<path d="M28.2994 137.895C63.4837 173.584 81.6292 204.386 99.3359 246.859C100.949 250.73 101.756 252.665 103.086 252.667C104.416 252.67 105.23 250.74 106.857 246.88C124.852 204.199 142.159 173.254 176.144 137.045" stroke="#E0E0E0" stroke-width="10"/>
</svg>
